# xmcd CD database file
#
# Track frame offsets:
#	150
#	8945
#	20652
#	37933
#	42479
#	65626
#	68682
#	74882
#	101142
#	131627
#	147790
#	155638
#	173535
#	193523
#	206214
#	221130
#	224267
#	225731
#	234569
#	239779
#	242667
#	246750
#
# Disc length: 3357 seconds
#
# Revision: 0
# Processed by: cddbd v1.5.2PL0 Copyright (c) Steve Scherf et al.
# Submitted via: CDex 1.51
#
DISCID=560d1b16
DTITLE=Tamio Shiraishi and Mico - Live Duo
DYEAR=2008
DGENRE=Jazz
TTITLE0=2003/11/14 Belgium - Hasselt At "Belgie Kunstencentrum"
TTITLE1=2003/11/14 Belgium - Hasselt At "Belgie Kunstencentrum"
TTITLE2=2003/11/14 Belgium - Hasselt At "Belgie Kunstencentrum"
TTITLE3=2003/11/14 Belgium - Hasselt At "Belgie Kunstencentrum"
TTITLE4=2002/02/23 UK - London At "October Gallery"
TTITLE5=2003/04/05 Germany - Berlin .... Outdoor
TTITLE6=2003/04/06 Germany At "Ausland"
TTITLE7=2003/11/15 France - Metz
TTITLE8=2007/08/31 Japan - Toyko At "PlanB"
TTITLE9=2002/12/01 USA - New York At "BPM"
TTITLE10=2002/09/27 France - Lille At "La Malterie"
TTITLE11=2000/06/24 Netherlands - Amsterdam
TTITLE12=2000/06/24 Netherlands - Amsterdam
TTITLE13=2000/06/24 Netherlands - Amsterdam
TTITLE14=2002/10/12 USA - Boston
TTITLE15=2001/10/05 France - Paris At "Instants Chavires"
TTITLE16=2001/10/05 France - Paris At "Instants Chavires"
TTITLE17=2001/10/05 France - Paris At "Instants Chavires"
TTITLE18=2001/10/05 France - Paris At "Instants Chavires"
TTITLE19=2001/10/05 France - Paris At "Instants Chavires"
TTITLE20=2001/10/05 France - Paris At "Instants Chavires"
TTITLE21=2001/10/05 France - Paris At "Instants Chavires"
EXTD=YEAR: 2008
EXTT0=
EXTT1=
EXTT2=
EXTT3=
EXTT4=
EXTT5=
EXTT6=
EXTT7=
EXTT8=
EXTT9=
EXTT10=
EXTT11=
EXTT12=
EXTT13=
EXTT14=
EXTT15=
EXTT16=
EXTT17=
EXTT18=
EXTT19=
EXTT20=
EXTT21=
PLAYORDER=
